Coordinates
version=1
nRows=9
nColumns=42
inDegrees=yes

Units are S.I. units (second, meters, Newtons, ...)
If the header above contains a line with 'inDegrees', this indicates whether rotational values are in degrees (yes) or radians (no).

endheader
time	pelvis_tilt	pelvis_list	pelvis_rotation	pelvis_tx	pelvis_ty	pelvis_tz	hip_flexion_r	hip_adduction_r	hip_rotation_r	knee_angle_r	knee_adduction_r	knee_angle_r_beta	ankle_angle_r	subtalar_angle_r	mtp_angle_r	hip_flexion_l	hip_adduction_l	hip_rotation_l	knee_angle_l	knee_adduction_l	knee_angle_l_beta	ankle_angle_l	subtalar_angle_l	mtp_angle_l	lumbar_extension	lumbar_bending	lumbar_rotation	arm_flex_r	arm_add_r	arm_rot_r	elbow_flex_r	pro_sup_r	wrist_flex_r	wrist_dev_r	arm_flex_l	arm_add_l	arm_rot_l	elbow_flex_l	pro_sup_l	wrist_flex_l	wrist_dev_l
      1.49000000	     20.90428081	      4.76724358	      6.89487777	      0.33382583	      0.91008729	     -0.25535106	     -6.57415318	     -1.79487157	    -31.03012749	     32.61223206	     -5.21922190	      0.56919083	     24.15265065	     15.05662177	     -7.59888975	     -2.65902481	      3.44417006	      0.08400558	     69.84537131	     -3.34729453	      1.21903170	     10.03911340	    -18.66744895	     -7.59888975	    -42.52361489	     -1.27283613	     -1.98796799	      3.90617252	     -8.71618775	    -26.61189970	     31.23125408	     90.00000001	      0.00000000	      0.00000000	      6.03307857	     -4.33499906	    -31.97540739	     35.99018888	     90.00000001	      0.00000000	      0.00000000
      1.50000000	     20.92310439	      4.76835603	      6.74488719	      0.34055930	      0.91060527	     -0.25479459	     -7.27733820	     -1.70018733	    -30.93905704	     32.21721122	     -5.06685535	      0.56229641	     24.42864974	     15.08132667	     -7.59747490	     -1.37343068	      3.90548813	      0.45573106	     69.18562760	     -3.47006222	      1.20751700	     10.29722065	    -18.64232286	     -7.59747490	    -42.64636291	     -1.28018564	     -1.76632358	      4.62384071	     -8.88338669	    -26.35335203	     31.57805415	     90.00000001	      0.00000000	      0.00000000	      5.97239551	     -4.21952016	    -31.92515351	     35.98147867	     90.00000001	      0.00000000	      0.00000000
      1.51000000	     21.04390881	      4.79179254	      6.62633316	      0.34751591	      0.91117202	     -0.25419666	     -8.16164384	     -1.60579523	    -30.87334442	     31.78353299	     -4.88130870	      0.55472730	     24.89951753	     15.47425626	     -7.59470528	     -0.32455506	      4.31551778	      1.09138269	     68.26939772	     -3.34861546	      1.19152577	     10.41917540	    -18.58346780	     -7.59470528	    -42.76405316	     -1.32403294	     -1.50955403	      5.34825322	     -9.15602428	    -25.65370773	     31.90421750	     90.00000001	      0.00000000	      0.00000000	      5.94831481	     -4.06131717	    -31.92456625	     35.91795990	     90.00000001	      0.00000000	      0.00000000
      1.52000000	     20.99254801	      4.76272754	      6.45666889	      0.35447355	      0.91144518	     -0.25357768	     -8.76317947	     -1.48260826	    -30.81734673	     31.45676571	     -4.80481617	      0.54902413	     24.99229985	     15.48349757	     -7.59351228	      0.90382465	      4.70427628	      1.42635626	     67.20641322	     -3.48070214	      1.17297319	     10.49052248	    -18.44572578	     -7.59351228	    -42.69238386	     -1.38714835	     -1.17553729	      6.05014239	     -9.35664860	    -25.37850984	     32.28105054	     90.00000001	      0.00000000	      0.00000000	      5.86390701	     -3.87359868	    -31.87326616	     35.95911130	     90.00000001	      0.00000000	      0.00000000
      1.53000000	     21.23762384	      4.77802972	      6.25570714	      0.36142346	      0.91211932	     -0.25306249	     -9.82595798	     -1.41530710	    -30.74718278	     30.91106874	     -4.56641744	      0.53949992	     25.43721871	     15.88449313	     -7.59146182	      1.63075858	      5.06917663	      2.01080878	     65.78638691	     -3.31811005	      1.14818905	     10.36396537	    -18.51942200	     -7.59146182	    -42.97562118	     -1.39982098	     -0.97798462	      6.81017037	     -9.60802657	    -24.64376867	     32.64503036	     90.00000001	      0.00000000	      0.00000000	      5.81112327	     -3.75231677	    -31.90508232	     35.95853699	     90.00000001	      0.00000000	      0.00000000
      1.54000000	     21.19024790	      4.74600320	      6.02266822	      0.36841856	      0.91234465	     -0.25246369	    -10.44138360	     -1.28273490	    -30.64190146	     30.50028111	     -4.53913153	      0.53233033	     25.59397621	     16.01892667	     -7.59008713	      2.66609835	      5.40071376	      2.35628938	     64.26754128	     -3.33856412	      1.12168020	     10.31647612	    -18.43032682	     -7.59008713	    -42.91641332	     -1.47656956	     -0.65268764	      7.49239700	     -9.82925584	    -24.19620941	     33.02055975	     90.00000001	      0.00000000	      0.00000000	      5.71342089	     -3.58713208	    -31.89144911	     36.02178808	     90.00000001	      0.00000000	      0.00000000
      1.55000000	     21.42195744	      4.74487152	      5.78241779	      0.37552979	      0.91278521	     -0.25198761	    -11.44063708	     -1.29082158	    -30.98828279	     30.05747092	     -4.45232005	      0.52460183	     26.20322679	     17.55591836	     -7.58046233	      3.25385244	      5.68716532	      2.78958415	     62.50597149	     -3.21762550	      1.09093500	     10.01404800	    -18.45870394	     -7.58046233	    -43.12610675	     -1.51970133	     -0.48864900	      7.84016283	    -10.61599838	    -20.19176233	     33.74615028	     90.00000001	      0.00000000	      0.00000000	      5.61046721	     -3.36363623	    -32.52067705	     36.22594284	     90.00000001	      0.00000000	      0.00000000
      1.56000000	     21.46789672	      4.71264253	      5.49073048	      0.38260974	      0.91297438	     -0.25139959	    -12.19424249	     -1.16654384	    -30.74463784	     29.59141265	     -4.36140840	      0.51646758	     26.37593098	     17.48734003	     -7.57914118	      3.99640116	      5.92250228	      3.01619137	     60.59568778	     -3.18254397	      1.05759426	      9.92537202	    -18.46699986	     -7.57914118	    -43.15561946	     -1.59608234	     -0.18194302	      8.60271922	    -10.78595676	    -19.96058023	     34.14382898	     90.00000001	      0.00000000	      0.00000000	      5.52013334	     -3.25525860	    -32.48870800	     36.27467953	     90.00000001	      0.00000000	      0.00000000
      1.57000000	     21.69625463	      4.66351721	      5.19447565	      0.38979641	      0.91330346	     -0.25087278	    -13.24310775	     -1.07001294	    -30.41089642	     29.05753328	     -4.01810953	      0.50714963	     26.66105680	     17.62355917	     -7.57735334	      4.41589437	      6.08241292	      3.23228223	     58.47331028	     -3.13244507	      1.02055179	      9.63999540	    -18.42704912	     -7.57735334	    -43.33159361	     -1.63422525	      0.09690361	      9.39972784	    -10.99551133	    -19.47613563	     34.53167451	     90.00000001	      0.00000000	      0.00000000	      5.36917526	     -3.10006953	    -32.51620578	     36.35151925	     90.00000001	      0.00000000	      0.00000000
